<?xml version="1.0" encoding="UTF-8" standalone="no"?>
<svg
   xmlns="http://www.w3.org/2000/svg"
   version="1.0"
   width="720"
   height="240"
   viewBox="0 0 720 240"
   id="svg_logo_final">
  <defs>
    <style>
      @import url('https://fonts.googleapis.com/css2?family=Montserrat:wght@800;900&amp;display=swap');
      .mexico-text {
        font-family: 'Montserrat', 'Helvetica Neue', Helvetica, Arial, sans-serif;
        font-weight: 900;
        font-size: 20px;
        fill: #000000;
        letter-spacing: 16px;
      }
    </style>
  </defs>
  <g id="layer1">
    <g transform="matrix(3.54794,0,0,3.54794,-452.19046,-636.53737)">
      <!-- ZIEHL-ABEGG Letters -->
      <!-- Z -->
      <path d="M 150.14759,202.92638 L 131.13509,202.92638 L 131.13509,207.93888 L 140.81134,207.93888 L 130.27009,225.39638 L 150.14759,225.39638 L 150.14759,220.38388 L 139.60634,220.38388 L 150.14759,202.92638 z" style="fill:#000000;fill-opacity:1;fill-rule:evenodd;stroke:none" />
      <!-- I -->
      <path d="M 158.03384,202.87513 L 152.63259,202.87513 L 152.63259,225.39638 L 158.03384,225.39638 L 158.03384,202.87513 z" style="fill:#000000;fill-opacity:1;fill-rule:evenodd;stroke:none" />
      <!-- E1 -->
      <path d="M 175.64259,202.92638 L 160.51759,202.92638 L 160.51759,225.39638 L 176.07384,225.39638 L 176.07384,220.38388 L 165.92009,220.38388 L 165.92009,216.66763 L 175.64259,216.66763 L 175.64259,211.65513 L 165.92009,211.65513 L 165.92009,207.93888 L 175.64259,207.93888 L 175.64259,202.92638 z" style="fill:#000000;fill-opacity:1;fill-rule:evenodd;stroke:none" />
      <!-- H -->
      <path d="M 183.63634,202.92638 L 178.23509,202.92638 L 178.23509,225.39638 L 183.63634,225.39638 L 183.63634,216.66763 L 192.71009,216.66763 L 192.71009,225.39638 L 198.11134,225.39638 L 198.11134,202.92638 L 192.71009,202.92638 L 192.71009,211.65513 L 183.63634,211.65513 L 183.63634,202.92638 z" style="fill:#000000;fill-opacity:1;fill-rule:evenodd;stroke:none" />
      <!-- L -->
      <path d="M 205.67384,202.92638 L 200.27259,202.92638 L 200.27259,225.39638 L 215.82884,225.39638 L 215.82884,220.38388 L 205.67384,220.38388 L 205.67384,202.92638 z" style="fill:#000000;fill-opacity:1;fill-rule:evenodd;stroke:none" />
      <!-- dash -->
      <path d="M 224.68634,217.61763 L 216.04384,217.61763 L 216.04384,212.60513 L 224.68634,212.60513 L 224.68634,217.61763 z" style="fill:#000000;fill-opacity:1;fill-rule:evenodd;stroke:none" />
      <!-- A -->
      <path d="M 231.77509,202.92638 L 224.03884,225.39638 L 229.75134,225.39638 L 231.23884,221.07513 L 240.17134,221.07513 L 241.66009,225.39638 L 247.37259,225.39638 L 239.63509,202.92638 L 231.77509,202.92638 z M 235.70509,208.10388 L 232.96509,216.06263 L 238.44634,216.06263 L 235.70509,208.10388 z" style="fill:#000000;fill-opacity:1;fill-rule:evenodd;stroke:none" />
      <!-- B -->
      <path d="M 256.52509,215.80388 L 253.24884,215.80388 L 253.24884,221.25638 L 256.52509,221.25638 C 256.85009,221.25638 257.18509,221.20263 257.51509,221.13513 C 257.83634,221.06888 258.15259,220.99013 258.44259,220.84388 C 258.80009,220.66138 259.11759,220.37638 259.32509,220.03138 C 259.56884,219.62513 259.66009,219.13638 259.67009,218.66138 C 259.67509,218.42013 259.66009,218.18138 259.60884,217.94638 C 259.49009,217.41138 259.18259,216.89763 258.76009,216.55013 C 258.42759,216.27638 258.02384,216.10638 257.60259,215.99388 C 257.24509,215.89763 256.87384,215.84388 256.52509,215.80388 M 255.98884,206.90138 L 253.24884,206.90138 L 253.24884,211.87513 L 255.98884,211.87513 C 256.66384,211.87513 257.19384,211.60263 257.56509,211.17388 C 257.97759,210.70013 258.19509,210.03638 258.20134,209.36888 C 258.20634,208.68888 257.99259,208.00513 257.52384,207.53888 C 257.12509,207.14138 256.54259,206.90138 255.98884,206.90138 M 248.23634,225.39638 L 248.23634,202.92638 L 257.75134,202.92638 C 258.71759,203.00388 259.70009,203.28513 260.55384,203.77638 C 261.13384,204.11138 261.65259,204.54263 262.06509,205.07388 C 263.18759,206.51763 263.51509,208.69638 262.88634,210.43263 C 262.48884,211.52888 261.71009,212.44763 260.50884,212.89513 C 261.35509,213.10263 262.11134,213.52263 262.74509,214.08638 C 263.66884,214.90638 264.33509,216.03013 264.64759,217.24638 C 265.06009,218.85138 264.85509,220.61638 264.08884,222.08263 C 263.62384,222.97263 262.95384,223.75263 262.13134,224.29263 C 261.55634,224.67013 260.90634,224.93138 260.23134,225.10513 C 259.41634,225.31513 258.56509,225.39638 257.75134,225.39638 L 248.23634,225.39638 z" style="fill:#000000;fill-opacity:1;fill-rule:evenodd;stroke:none" />
      <!-- E2 -->
      <path d="M 281.94134,202.92638 L 266.81759,202.92638 L 266.81759,225.39638 L 282.37384,225.39638 L 282.37384,220.38388 L 272.21884,220.38388 L 272.21884,216.66763 L 281.94134,216.66763 L 281.94134,211.65513 L 272.21884,211.65513 L 272.21884,207.93888 L 281.94134,207.93888 L 281.94134,202.92638 z" style="fill:#000000;fill-opacity:1;fill-rule:evenodd;stroke:none" />
      <!-- G1 -->
      <path d="M 303.57259,204.29638 C 302.61634,203.78263 301.60384,203.36013 300.54259,203.06388 C 298.93759,202.61638 297.22009,202.45638 295.51884,202.51638 C 293.63009,202.58263 291.76259,202.91763 290.09884,203.70388 C 288.55884,204.43263 287.19509,205.54763 286.18884,206.94638 C 284.76134,208.93263 284.05634,211.49138 284.10884,214.07138 C 284.16759,216.92638 285.15509,219.80763 286.97384,221.80888 C 287.71884,222.63013 288.60509,223.30388 289.57884,223.83513 C 291.63634,224.96013 294.08634,225.45388 296.44634,225.38013 C 298.07009,225.33013 299.65009,225.01138 301.09384,224.35888 C 302.14759,223.88263 303.12884,223.22888 303.97884,222.42763 L 303.97884,213.25888 L 296.23134,213.25888 L 296.23134,217.36388 L 299.13009,217.36388 L 299.13009,219.99513 C 298.67509,220.23763 298.20634,220.43138 297.75509,220.56763 C 296.87759,220.83263 296.06634,220.87763 295.28509,220.80388 C 293.80134,220.66263 292.42384,220.09638 291.47509,219.40388 C 290.35259,218.58513 289.83009,217.59013 289.47884,216.55263 C 289.10009,215.43138 288.92009,214.25888 289.14134,212.92388 C 289.35134,211.65763 289.92134,210.24388 290.82259,209.22138 C 291.37009,208.60013 292.04134,208.12263 292.79509,207.78138 C 293.68509,207.37763 294.69134,207.16138 295.75134,207.11763 C 297.39634,207.05013 299.17009,207.39638 300.74259,207.92638 C 301.82009,208.28888 302.80259,208.73763 303.57259,209.18763 L 303.57259,204.29638 z" style="fill:#000000;fill-opacity:1;fill-rule:evenodd;stroke:none" />
      <!-- G2 -->
      <path d="M 311.61634,223.83513 C 313.67384,224.96013 316.12509,225.45388 318.48384,225.38013 C 320.10759,225.33013 321.68759,225.01138 323.13134,224.35888 C 324.18509,223.88263 325.16634,223.22888 326.01634,222.42763 L 326.01634,213.25888 L 318.26884,213.25888 L 318.26884,217.36388 L 321.16884,217.36388 L 321.16884,219.99513 C 320.71259,220.23763 320.24384,220.43138 319.79384,220.56763 C 318.91509,220.83263 318.10384,220.87763 317.32259,220.80388 C 315.83884,220.66263 314.46134,220.09638 313.51259,219.40388 C 312.39009,218.58513 311.86759,217.59013 311.51634,216.55263 C 311.13759,215.43138 310.95759,214.25888 311.18009,212.92388 C 311.38884,211.65763 311.95884,210.24388 312.86009,209.22138 C 313.40759,208.60013 314.07884,208.12263 314.83259,207.78138 C 315.72259,207.37763 316.72884,207.16138 317.78884,207.11763 C 319.43384,207.05013 321.20759,207.39638 322.78009,207.92638 C 323.85759,208.28888 324.84009,208.73763 325.61009,209.18763 L 325.61009,204.29638 C 324.65384,203.78263 323.64134,203.36013 322.58009,203.06388 C 320.97509,202.61638 319.25759,202.45638 317.55634,202.51638 C 315.66759,202.58263 313.80009,202.91763 312.13634,203.70388 C 310.59634,204.43263 309.23259,205.54763 308.22634,206.94638 C 306.79759,208.93263 306.09384,211.49138 306.14634,214.07138 C 306.20509,216.92638 307.19259,219.80763 309.01134,221.80888 C 309.75634,222.63013 310.64259,223.30388 311.61634,223.83513" style="fill:#000000;fill-opacity:1;fill-rule:evenodd;stroke:none" />
    </g>
    <!-- Tricolor Underline Divider -->
    <line x1="10" y1="175" x2="241" y2="175" style="stroke:#006847;stroke-width:3.5;stroke-linecap:square" />
    <line x1="241" y1="175" x2="472" y2="175" style="stroke:#E5E7EB;stroke-width:3.5;stroke-linecap:square" />
    <line x1="472" y1="175" x2="704" y2="175" style="stroke:#CE1126;stroke-width:3.5;stroke-linecap:square" />
    
    <!-- Sub-text MÉXICO -->
    <text x="357" y="215" class="mexico-text" text-anchor="middle">MÉXICO</text>
  </g>
</svg>
